<svg id="I14:228;1:74" width="46" height="62" viewBox="0 0 46 62" fill="none" xmlns="http://www.w3.org/2000/svg" class="button-arrow">
  <path d="M44.9907 13.2733C28.1432 13.2733 23.3074 5.0911 22.9954 1V60.321C41.1532 56.6845 45.2247 41.5322 44.9907 34.4107V13.2733Z" fill="black" stroke="white" stroke-width="2"></path>
  <path d="M1.00932 13.2733C17.8568 13.2733 22.6926 5.0911 23.0046 1V60.321C4.84681 56.6845 0.775331 41.5322 1.00932 34.4107V13.2733Z" fill="#0FB5B6" stroke="white" stroke-width="2"></path>
  <path fill-rule="evenodd" clip-rule="evenodd" d="M22.9954 33.2743V60.3211C41.1532 56.6845 45.2247 41.5323 44.9907 34.4108V33.2743H22.9954Z" fill="#0FB5B6"></path>
  <path d="M22.9954 33.2743V32.2743H21.9954V33.2743H22.9954ZM22.9954 60.3211H21.9954V61.5412L23.1917 61.3016L22.9954 60.3211ZM44.9907 34.4108H43.9907V34.4272L43.9912 34.4436L44.9907 34.4108ZM44.9907 33.2743H45.9907V32.2743H44.9907V33.2743ZM21.9954 33.2743V60.3211H23.9954V33.2743H21.9954ZM23.1917 61.3016C41.9968 57.5354 46.2338 41.7947 45.9901 34.3779L43.9912 34.4436C44.2155 41.2699 40.3096 55.8336 22.799 59.3405L23.1917 61.3016ZM45.9907 34.4108V33.2743H43.9907V34.4108H45.9907ZM44.9907 32.2743H22.9954V34.2743H44.9907V32.2743Z" fill="white"></path>
  <path fill-rule="evenodd" clip-rule="evenodd" d="M23.0046 33.2743V60.3211C4.84681 56.6845 0.775331 41.5323 1.00932 34.4108V33.2743H23.0046Z" fill="black"></path>
  <path d="M23.0046 33.2743V32.2743H24.0046V33.2743H23.0046ZM23.0046 60.3211H24.0046V61.5412L22.8083 61.3016L23.0046 60.3211ZM1.00932 34.4108H2.00932V34.4272L2.00878 34.4436L1.00932 34.4108ZM1.00932 33.2743H0.00932312V32.2743H1.00932V33.2743ZM24.0046 33.2743V60.3211H22.0046V33.2743H24.0046ZM22.8083 61.3016C4.00323 57.5354 -0.233828 41.7947 0.0098629 34.3779L2.00878 34.4436C1.78449 41.2699 5.69038 55.8336 23.201 59.3405L22.8083 61.3016ZM0.00932312 34.4108V33.2743H2.00932V34.4108H0.00932312ZM1.00932 32.2743H23.0046V34.2743H1.00932V32.2743Z" fill="white"></path>
</svg> 